<svg xmlns="http://www.w3.org/2000/svg" width="800" height="480" viewBox="0 0 800 480">
  <defs>
    <linearGradient id="bg3" x1="0%" y1="0%" x2="100%" y2="100%">
      <stop offset="0%" style="stop-color:#eff6ff"/>
      <stop offset="100%" style="stop-color:#dbeafe"/>
    </linearGradient>
  </defs>
  <rect width="800" height="480" fill="url(#bg3)"/>
  <rect x="80" y="60" width="640" height="360" rx="10" fill="#0f172a" stroke="#1e293b" stroke-width="2"/>
  <rect x="80" y="60" width="640" height="36" rx="10" fill="#1e293b"/>
  <circle cx="108" cy="78" r="6" fill="#ef4444"/>
  <circle cx="128" cy="78" r="6" fill="#f59e0b"/>
  <circle cx="148" cy="78" r="6" fill="#22c55e"/>
  <!-- Nav -->
  <rect x="100" y="108" width="600" height="40" fill="#1e293b" rx="4"/>
  <rect x="115" y="120" width="60" height="14" rx="3" fill="#3b82f6"/>
  <rect x="490" y="120" width="50" height="14" rx="3" fill="#334155"/>
  <rect x="555" y="120" width="50" height="14" rx="3" fill="#334155"/>
  <rect x="620" y="117" width="60" height="20" rx="4" fill="#3b82f6"/>
  <!-- Hero -->
  <rect x="100" y="160" width="600" height="160" fill="#1e293b" rx="4"/>
  <rect x="130" y="185" width="240" height="22" rx="4" fill="#60a5fa"/>
  <rect x="130" y="218" width="340" height="12" rx="3" fill="#475569"/>
  <rect x="130" y="240" width="300" height="12" rx="3" fill="#475569"/>
  <rect x="130" y="270" width="110" height="30" rx="6" fill="#3b82f6"/>
  <!-- Floating card -->
  <rect x="500" y="175" width="170" height="130" rx="8" fill="#1e40af" stroke="#3b82f6" stroke-width="1"/>
  <rect x="515" y="195" width="80" height="10" rx="2" fill="#93c5fd"/>
  <rect x="515" y="215" width="130" height="8" rx="2" fill="#60a5fa60"/>
  <rect x="515" y="235" width="110" height="8" rx="2" fill="#60a5fa60"/>
  <rect x="515" y="270" width="70" height="22" rx="4" fill="#60a5fa"/>
  <!-- Stats row -->
  <rect x="100" y="335" width="185" height="70" rx="6" fill="#1e293b"/>
  <rect x="307" y="335" width="185" height="70" rx="6" fill="#1e293b"/>
  <rect x="515" y="335" width="185" height="70" rx="6" fill="#1e293b"/>
  <rect x="118" y="352" width="60" height="16" rx="3" fill="#3b82f6"/>
  <rect x="118" y="376" width="100" height="10" rx="2" fill="#475569"/>
  <rect x="325" y="352" width="60" height="16" rx="3" fill="#3b82f6"/>
  <rect x="325" y="376" width="100" height="10" rx="2" fill="#475569"/>
  <rect x="533" y="352" width="60" height="16" rx="3" fill="#3b82f6"/>
  <rect x="533" y="376" width="100" height="10" rx="2" fill="#475569"/>
  <text x="400" y="455" text-anchor="middle" font-family="system-ui" font-size="15" fill="#1e3a8a" font-weight="600">Camascope — Webflow SaaS Site</text>
</svg>
