<svg xmlns="http://www.w3.org/2000/svg" width="800" height="480" viewBox="0 0 800 480">
  <defs>
    <linearGradient id="bg4" x1="0%" y1="0%" x2="100%" y2="100%">
      <stop offset="0%" style="stop-color:#faf5ff"/>
      <stop offset="100%" style="stop-color:#ede9fe"/>
    </linearGradient>
  </defs>
  <rect width="800" height="480" fill="url(#bg4)"/>
  <rect x="80" y="60" width="640" height="360" rx="10" fill="#fff" stroke="#e5e7eb" stroke-width="2"/>
  <rect x="80" y="60" width="640" height="36" rx="10" fill="#f3f4f6"/>
  <circle cx="108" cy="78" r="6" fill="#ef4444"/>
  <circle cx="128" cy="78" r="6" fill="#f59e0b"/>
  <circle cx="148" cy="78" r="6" fill="#22c55e"/>
  <!-- Hero band -->
  <rect x="80" y="96" width="640" height="150" fill="#6d28d9"/>
  <rect x="130" y="125" width="200" height="20" rx="4" fill="#ede9fe"/>
  <rect x="130" y="156" width="300" height="11" rx="3" fill="#c4b5fd60"/>
  <rect x="130" y="177" width="260" height="11" rx="3" fill="#c4b5fd60"/>
  <rect x="130" y="205" width="120" height="28" rx="6" fill="#a78bfa"/>
  <!-- Tutor cards -->
  <rect x="100" y="268" width="170" height="130" rx="8" fill="#f5f3ff" stroke="#ede9fe" stroke-width="1"/>
  <circle cx="185" cy="298" r="24" fill="#ddd6fe"/>
  <rect x="118" y="332" width="120" height="10" rx="2" fill="#4c1d95"/>
  <rect x="128" y="352" width="90" height="8" rx="2" fill="#7c3aed"/>
  <rect x="118" y="370" width="50" height="16" rx="4" fill="#7c3aed"/>
  <rect x="290" y="268" width="170" height="130" rx="8" fill="#f5f3ff" stroke="#ede9fe" stroke-width="1"/>
  <circle cx="375" cy="298" r="24" fill="#c4b5fd"/>
  <rect x="308" y="332" width="120" height="10" rx="2" fill="#4c1d95"/>
  <rect x="318" y="352" width="90" height="8" rx="2" fill="#7c3aed"/>
  <rect x="308" y="370" width="50" height="16" rx="4" fill="#7c3aed"/>
  <rect x="480" y="268" width="170" height="130" rx="8" fill="#f5f3ff" stroke="#ede9fe" stroke-width="1"/>
  <circle cx="565" cy="298" r="24" fill="#a78bfa"/>
  <rect x="498" y="332" width="120" height="10" rx="2" fill="#4c1d95"/>
  <rect x="508" y="352" width="90" height="8" rx="2" fill="#7c3aed"/>
  <rect x="498" y="370" width="50" height="16" rx="4" fill="#7c3aed"/>
  <text x="400" y="455" text-anchor="middle" font-family="system-ui" font-size="15" fill="#4c1d95" font-weight="600">PremierTutor.ca — WordPress Platform</text>
</svg>
