<svg xmlns="http://www.w3.org/2000/svg" width="800" height="480" viewBox="0 0 800 480">
  <defs>
    <linearGradient id="bg2" x1="0%" y1="0%" x2="100%" y2="100%">
      <stop offset="0%" style="stop-color:#f0fdf4"/>
      <stop offset="100%" style="stop-color:#bbf7d0"/>
    </linearGradient>
  </defs>
  <rect width="800" height="480" fill="url(#bg2)"/>
  <rect x="80" y="60" width="640" height="360" rx="10" fill="#fff" stroke="#e5e7eb" stroke-width="2"/>
  <rect x="80" y="60" width="640" height="36" rx="10" fill="#f3f4f6"/>
  <circle cx="108" cy="78" r="6" fill="#ef4444"/>
  <circle cx="128" cy="78" r="6" fill="#f59e0b"/>
  <circle cx="148" cy="78" r="6" fill="#22c55e"/>
  <!-- Split layout -->
  <rect x="80" y="96" width="320" height="324" fill="#14532d"/>
  <rect x="110" y="150" width="160" height="16" rx="4" fill="#bbf7d0"/>
  <rect x="110" y="178" width="240" height="10" rx="3" fill="#86efac60"/>
  <rect x="110" y="200" width="200" height="10" rx="3" fill="#86efac60"/>
  <rect x="110" y="222" width="220" height="10" rx="3" fill="#86efac60"/>
  <rect x="110" y="255" width="110" height="32" rx="6" fill="#16a34a"/>
  <!-- Right side content -->
  <rect x="420" y="116" width="280" height="160" rx="8" fill="#f0fdf4"/>
  <rect x="435" y="132" width="200" height="12" rx="3" fill="#166534"/>
  <rect x="435" y="154" width="240" height="10" rx="3" fill="#d1fae5"/>
  <rect x="435" y="172" width="180" height="10" rx="3" fill="#d1fae5"/>
  <rect x="435" y="190" width="220" height="10" rx="3" fill="#d1fae5"/>
  <rect x="420" y="295" width="130" height="100" rx="6" fill="#dcfce7" stroke="#bbf7d0" stroke-width="1"/>
  <rect x="565" y="295" width="130" height="100" rx="6" fill="#dcfce7" stroke="#bbf7d0" stroke-width="1"/>
  <rect x="435" y="315" width="80" height="10" rx="2" fill="#166534"/>
  <rect x="435" y="335" width="60" height="10" rx="2" fill="#16a34a"/>
  <rect x="580" y="315" width="80" height="10" rx="2" fill="#166534"/>
  <rect x="580" y="335" width="60" height="10" rx="2" fill="#16a34a"/>
  <text x="400" y="455" text-anchor="middle" font-family="system-ui" font-size="15" fill="#14532d" font-weight="600">Redworm Depot — WordPress Site</text>
</svg>
