<svg xmlns="http://www.w3.org/2000/svg" width="800" height="480" viewBox="0 0 800 480">
  <defs>
    <linearGradient id="bg3" x1="0%" y1="0%" x2="100%" y2="100%">
      <stop offset="0%" style="stop-color:#0f172a;stop-opacity:1" />
      <stop offset="100%" style="stop-color:#1e293b;stop-opacity:1" />
    </linearGradient>
  </defs>
  <rect width="800" height="480" fill="url(#bg3)"/>
  <!-- Browser frame -->
  <rect x="100" y="80" width="600" height="320" rx="12" fill="#1e293b" stroke="#334155" stroke-width="2"/>
  <rect x="100" y="80" width="600" height="40" rx="12" fill="#334155"/>
  <circle cx="130" cy="100" r="7" fill="#ef4444"/>
  <circle cx="155" cy="100" r="7" fill="#f59e0b"/>
  <circle cx="180" cy="100" r="7" fill="#22c55e"/>
  <!-- URL bar -->
  <rect x="210" y="88" width="360" height="24" rx="4" fill="#0f172a"/>
  <text x="390" y="105" text-anchor="middle" font-family="monospace" font-size="12" fill="#64748b">abdulsamod.dev</text>
  <!-- Content lines -->
  <rect x="130" y="145" width="200" height="20" rx="4" fill="#4f46e5"/>
  <rect x="130" y="178" width="320" height="12" rx="3" fill="#334155"/>
  <rect x="130" y="200" width="280" height="12" rx="3" fill="#334155"/>
  <rect x="130" y="222" width="240" height="12" rx="3" fill="#334155"/>
  <!-- Card -->
  <rect x="450" y="140" width="220" height="150" rx="8" fill="#334155"/>
  <rect x="450" y="140" width="220" height="60" rx="8" fill="#4f46e5"/>
  <rect x="465" y="215" width="140" height="10" rx="3" fill="#475569"/>
  <rect x="465" y="235" width="100" height="10" rx="3" fill="#475569"/>
  <!-- Label -->
  <text x="400" y="440" text-anchor="middle" font-family="system-ui" font-size="18" fill="#ffffffcc" font-weight="600">Web Development Portfolio</text>
  <text x="400" y="50" text-anchor="middle" font-family="system-ui" font-size="14" fill="#818cf8">WordPress · Wix · Webflow</text>
</svg>
